HIERARCHY
ROOT Hips
{
	OFFSET -3.958830 18.904000 13.208200
	CHANNELS 6 Xposition Yposition Zposition Zrotation Yrotation Xrotation 
	JOINT LHipJoint
	{
		OFFSET 0.000000 0.000000 0.000000
		CHANNELS 3 Zrotation Yrotation Xrotation
		JOINT LeftUpLeg
		{
			OFFSET 1.800000 -1.400000 0.085000
			CHANNELS 3 Zrotation Yrotation Xrotation
			JOINT LeftLeg
			{
				OFFSET 2.215000 -6.000000 0.000000
				CHANNELS 3 Zrotation Yrotation Xrotation
				JOINT LeftFoot
				{
					OFFSET 2.500000 -6.900000 0.000000
					CHANNELS 3 Zrotation Yrotation Xrotation
					JOINT LeftToeBase
					{
						OFFSET 0.200000 -0.500000 1.950000
						CHANNELS 3 Zrotation Yrotation Xrotation
						End Site
						{
							OFFSET 0.000000 0.000000 0.000000
						}
					}
				}
			}
		}
	}
	JOINT RHipJoint
	{
		OFFSET 0.000000 0.000000 0.000000
		CHANNELS 3 Zrotation Yrotation Xrotation
		JOINT RightUpLeg
		{
			OFFSET -1.800000 -1.400000 0.085000
			CHANNELS 3 Zrotation Yrotation Xrotation
			JOINT RightLeg
			{
				OFFSET -2.215000 -6.000000 0.000000
				CHANNELS 3 Zrotation Yrotation Xrotation
				JOINT RightFoot
				{
					OFFSET -2.500000 -6.900000 0.000000
					CHANNELS 3 Zrotation Yrotation Xrotation
					JOINT RightToeBase
					{
						OFFSET -0.200000 -0.500000 1.950000
						CHANNELS 3 Zrotation Yrotation Xrotation
						End Site
						{
							OFFSET 0.000000 0.000000 0.000000
						}
					}
				}
			}
		}
	}
	JOINT LowerBack
	{
		OFFSET 0.000000 0.000000 0.000000
		CHANNELS 3 Zrotation Yrotation Xrotation
		JOINT Spine
		{
			OFFSET -0.087000 1.940000 -0.288900
			CHANNELS 3 Zrotation Yrotation Xrotation
			JOINT Spine1
			{
				OFFSET 0.000000 1.950000 0.060000
				CHANNELS 3 Zrotation Yrotation Xrotation
				JOINT Neck
				{
					OFFSET 0.000000 0.000000 0.000000
					CHANNELS 3 Zrotation Yrotation Xrotation
					JOINT Neck1
					{
						OFFSET 0.000000 1.600000 0.340000
						CHANNELS 3 Zrotation Yrotation Xrotation
						JOINT Head
						{
							OFFSET 0.000000 1.667000 -0.240000
							CHANNELS 3 Zrotation Yrotation Xrotation
							End Site
							{
								OFFSET 0.000000 0.000000 0.000000
							}
						}
					}
				}
				JOINT LeftShoulder
				{
					OFFSET 0.000000 0.000000 0.000000
					CHANNELS 3 Zrotation Yrotation Xrotation
					JOINT LeftArm
					{
						OFFSET 2.700000 1.550000 -0.730000
						CHANNELS 3 Zrotation Yrotation Xrotation
						JOINT LeftForeArm
						{
							OFFSET 5.450000 0.000000 0.000000
							CHANNELS 3 Zrotation Yrotation Xrotation
							JOINT LeftHand
							{
								OFFSET 3.450000 0.000000 0.000000
								CHANNELS 3 Zrotation Yrotation Xrotation
								JOINT LeftHandIndex1
								{
									OFFSET 0.750000 0.000000 0.000000
									CHANNELS 3 Zrotation Yrotation Xrotation
									End Site
									{
										OFFSET 0.000000 0.000000 0.000000
									}
								}
							}
						}
					}
				}
				JOINT RightShoulder
				{
					OFFSET 0.000000 0.000000 0.000000
					CHANNELS 3 Zrotation Yrotation Xrotation
					JOINT RightArm
					{
						OFFSET -2.700000 1.550000 -0.730000
						CHANNELS 3 Zrotation Yrotation Xrotation
						JOINT RightForeArm
						{
							OFFSET -5.450000 0.000000 0.000000
							CHANNELS 3 Zrotation Yrotation Xrotation
							JOINT RightHand
							{
								OFFSET -3.450000 0.000000 0.000000
								CHANNELS 3 Zrotation Yrotation Xrotation
								JOINT RightHandIndex1
								{
									OFFSET -0.750000 0.000000 0.000000
									CHANNELS 3 Zrotation Yrotation Xrotation
									End Site
									{
										OFFSET 0.000000 0.000000 0.000000
									}
								}
							}
						}
					}
				}
			}
		}
	}
}
MOTION
Frames: 6
Frame Time: 0.016667
-0.774010 17.034390 2.320190 -3.334108 -1.399914 12.752097 -15.329293 12.340312 2.884002 -1.275054 -1.570301 -9.805131 -7.156322 2.956996 -0.154712 -0.834756 4.993221 3.674792 0.047500 -0.452750 -0.408950 18.259328 -10.247476 2.745884 -23.338835 1.493114 -16.425285 2.631771 -3.824273 -1.029866 -0.431691 -4.770622 2.471760 0.023310 1.996870 1.561100 -3.399776 -1.044400 -6.714317 0.009636 2.236956 -1.131423 6.403209 1.106018 3.963813 0.417891 2.340580 -6.661221 4.140490 7.866432 17.554306 -3.366790 5.574320 0.227330 -11.572484 -2.202489 1.674592 -56.962373 -10.693350 4.357795 -23.275761 -16.447233 0.709317 -5.042916 3.167809 0.451690 1.350790 -0.189180 0.856550 11.899376 1.553128 1.604144 55.314198 10.145430 0.392033 26.291339 22.788336 2.801344 1.703794 -1.922611 -0.443350 0.379030 0.350130 0.395560 
-0.786110 17.034740 2.319360 -3.369449 -1.569033 12.551698 -15.335638 12.348931 2.879586 -1.204274 -1.524240 -9.583762 -7.025436 2.951609 -0.241590 -0.828067 5.010385 3.677931 0.023670 -0.486400 -0.412980 18.251626 -10.249314 2.743784 -23.354178 1.504331 -16.073425 2.500415 -3.829798 -1.164663 -0.431895 -4.785455 2.480088 0.001120 2.003090 1.553760 -3.378544 -1.057260 -6.715258 -0.286812 2.428940 -1.108093 6.767957 1.285832 4.063341 0.367768 2.406408 -6.756453 4.247789 7.758949 17.845364 -3.504130 5.657570 0.349400 -11.537874 -2.418626 1.753951 -57.085670 -10.832153 4.381248 -23.007442 -16.553438 0.690023 -5.048992 3.141904 0.460560 1.352020 -0.193820 0.846790 11.980829 1.776821 1.744938 55.021205 9.983706 0.180049 26.003914 23.002715 2.798878 1.702996 -1.897102 -0.454030 0.388010 0.362390 0.388090 
-0.794850 17.038690 2.316190 -3.406147 -1.735529 12.248070 -15.340487 12.367481 2.874129 -1.182489 -1.462924 -9.319374 -6.819135 2.954096 -0.170859 -0.820002 5.010794 3.674981 0.000630 -0.519550 -0.419240 18.242576 -10.266099 2.739377 -23.316095 1.498123 -15.694294 2.329808 -3.848718 -1.233389 -0.438956 -4.792212 2.482128 -0.027430 1.992140 1.553230 -3.357098 -1.062624 -6.721388 -0.416853 2.589806 -0.986435 6.941776 1.431928 4.256791 0.369692 2.406731 -6.918655 4.243388 7.667360 18.385533 -3.658060 5.773380 0.348310 -11.726331 -2.918827 1.936259 -56.938955 -10.838368 4.217464 -22.802210 -16.871022 0.691273 -5.038450 3.128198 0.481230 1.339430 -0.184550 0.834170 12.177088 2.323806 1.968248 54.706616 9.936572 -0.046664 25.619036 23.001901 2.747739 1.711423 -1.868683 -0.456440 0.381380 0.375160 0.380500 
-0.802770 17.043160 2.314520 -3.377250 -1.809371 12.050106 -15.346019 12.381703 2.862349 -1.229057 -1.430166 -9.195535 -6.610722 2.958443 0.006433 -0.797406 4.989704 3.676441 -0.009170 -0.530950 -0.422900 18.235245 -10.263868 2.748541 -23.339534 1.507496 -15.383501 2.212388 -3.840760 -1.439481 -0.447950 -4.809467 2.478211 -0.047010 1.978770 1.559520 -3.338139 -1.084183 -6.723773 -0.642597 2.687060 -0.948268 7.163048 1.519279 4.327783 0.328758 2.415024 -6.986064 4.249068 7.665184 18.714382 -3.710070 5.912790 0.474510 -11.896518 -3.106054 2.066935 -56.848133 -10.722390 4.013953 -22.690296 -17.424084 0.759701 -5.028084 3.139347 0.479520 1.330930 -0.175240 0.828120 12.445893 2.544436 2.024507 54.336899 9.904605 -0.114896 25.397128 22.783452 2.698591 1.727229 -1.859893 -0.441350 0.363010 0.376580 0.382550 
-0.809700 17.045560 2.309860 -3.373432 -1.709872 11.849072 -15.349136 12.399650 2.856640 -1.197267 -1.404595 -9.068415 -6.409955 2.945138 0.089605 -0.782382 4.977879 3.677416 -0.012350 -0.538150 -0.430460 18.229092 -10.275211 2.742897 -23.297063 1.498061 -15.123982 2.044943 -3.844292 -1.478959 -0.455986 -4.820650 2.478147 -0.060600 1.971960 1.569530 -3.324277 -1.099535 -6.724024 -0.761951 2.707562 -0.915255 7.185017 1.526349 4.467959 0.354447 2.445973 -7.091381 4.293963 7.651514 19.049508 -3.641580 5.945340 0.625130 -11.881065 -3.373241 2.210626 -56.803348 -10.676951 3.837751 -22.517132 -17.851324 0.785325 -5.015060 3.154207 0.483360 1.324760 -0.167070 0.831540 12.386023 2.791712 2.121011 54.384090 9.962468 -0.159750 25.116510 22.583932 2.622855 1.735791 -1.858444 -0.430150 0.346860 0.375540 0.386650 
-0.815510 17.047710 2.307180 -3.426793 -1.643498 11.653483 -15.350327 12.413391 2.858912 -1.051944 -1.359232 -8.882342 -6.379500 2.946587 -0.013952 -0.768997 4.985741 3.673724 -0.025430 -0.548640 -0.440710 18.225502 -10.292291 2.725648 -23.201820 1.472943 -15.011443 1.968808 -3.859730 -1.331560 -0.451397 -4.812494 2.484472 -0.070630 1.968870 1.563950 -3.316514 -1.103114 -6.721635 -0.753632 2.710798 -0.898141 7.137544 1.521063 4.581439 0.393874 2.458287 -7.153583 4.309077 7.631167 19.300042 -3.648610 5.998800 0.783840 -11.990101 -3.575831 2.314651 -56.608396 -10.593638 3.690396 -22.547321 -18.196309 0.844798 -5.007324 3.154000 0.482980 1.320600 -0.166640 0.827970 12.419621 2.979125 2.178284 54.293525 10.032539 -0.152628 25.035997 22.423910 2.593156 1.745505 -1.850528 -0.430480 0.343160 0.378760 0.388770 
